HIERARCHY
ROOT Hips
{
  OFFSET 3.13124 94.3669 -3.18751
  CHANNELS  6 Xposition Yposition Zposition Zrotation Xrotation Yrotation
  JOINT LeftUpLeg
  {
    OFFSET 8.64259 1.95398 -2.38835
    CHANNELS 3 Zrotation Xrotation Yrotation
    JOINT LeftLeg
    {
      OFFSET 43.7702 0 0
      CHANNELS 3 Zrotation Xrotation Yrotation
      JOINT LeftFoot
      {
        OFFSET 40.6238 0 0
        CHANNELS 3 Zrotation Xrotation Yrotation
        JOINT LeftToeBase
        {
          OFFSET 12.7242 0 0
          CHANNELS 3 Zrotation Xrotation Yrotation
          End Site
          {
            OFFSET 0 0 0
          }
        }
      }
    }
  }
  JOINT RightUpLeg
  {
    OFFSET -8.2249 1.95398 -2.59336
    CHANNELS 3 Zrotation Xrotation Yrotation
    JOINT RightLeg
    {
      OFFSET 43.5653 0 0
      CHANNELS 3 Zrotation Xrotation Yrotation
      JOINT RightFoot
      {
        OFFSET 40.6238 0 0
        CHANNELS 3 Zrotation Xrotation Yrotation
        JOINT RightToeBase
        {
          OFFSET 12.7242 0 0
          CHANNELS 3 Zrotation Xrotation Yrotation
          End Site
          {
            OFFSET 0 0 0
          }
        }
      }
    }
  }
  JOINT Spine
  {
    OFFSET 0.165834 0.87714 6.61349
    CHANNELS 3 Zrotation Xrotation Yrotation
    JOINT Spine1
    {
      OFFSET 7.38962 1.71661e-005 0
      CHANNELS 3 Zrotation Xrotation Yrotation
      JOINT Spine2
      {
        OFFSET 11.9445 1.14441e-005 0
        CHANNELS 3 Zrotation Xrotation Yrotation
        JOINT Spine3
        {
          OFFSET 14.7254 4.19617e-005 0
          CHANNELS 3 Zrotation Xrotation Yrotation
          JOINT Spine4
          {
            OFFSET 10.9679 0 0
            CHANNELS 3 Zrotation Xrotation Yrotation
            JOINT RightShoulder
            {
              OFFSET 2.46616 -1.6653 3.69651
              CHANNELS 3 Zrotation Xrotation Yrotation
              JOINT RightArm
              {
                OFFSET 13.0012 0 0
                CHANNELS 3 Zrotation Xrotation Yrotation
                JOINT RightForeArm
                {
                  OFFSET 28.7848 1.52588e-005 0
                  CHANNELS 3 Zrotation Xrotation Yrotation
                  JOINT RightHand
                  {
                    OFFSET 26.5688 1.52588e-005 0
                    CHANNELS 3 Zrotation Xrotation Yrotation
                    End Site
                    {
                      OFFSET 0 0 0
                    }
                  }
                }
              }
            }
            JOINT LeftShoulder
            {
              OFFSET 2.38034 -1.29275 -3.75231
              CHANNELS 3 Zrotation Xrotation Yrotation
              JOINT LeftArm
              {
                OFFSET 16.3182 6.10352e-005 0
                CHANNELS 3 Zrotation Xrotation Yrotation
                JOINT LeftForeArm
                {
                  OFFSET 27.0901 0 0
                  CHANNELS 3 Zrotation Xrotation Yrotation
                  JOINT LeftHand
                  {
                    OFFSET 24.5451 1.52588e-005 0
                    CHANNELS 3 Zrotation Xrotation Yrotation
                    End Site
                    {
                      OFFSET 0 0 0
                    }
                  }
                }
              }
            }
            JOINT Neck
            {
              OFFSET 5.0226 -0.0266342 0
              CHANNELS 3 Zrotation Xrotation Yrotation
              JOINT Head
              {
                OFFSET 6.69363 2.86102e-005 0
                CHANNELS 3 Zrotation Xrotation Yrotation
                End Site
                {
                  OFFSET 0 0 0
                }
              }
            }
          }
        }
      }
    }
  }
}
MOTION
Frames:	7
Frame Time:	0.0333333
3.93808 96.9808 -23.2893 116.904 -89.999 116.951 -171.737 2.77759 93.2877 -8.49298 8.26232 -0.0360469 63.148 2.03057 1.07878 28.7808 5.05434e-006 7.12239e-006 179.139 1.90592 88.5806 -7.58647 -0.759736 -0.0454345 62.7206 -1.25912 -0.638427 28.7808 1.23702e-005 2.70291e-005 0.00473074 6.33927 -90.0467 14.1954 0.00249039 0.00223032 2.52444 0.00258663 0.00211181 -20.0107 0.00170194 0.0028755 0.001929 0.0017034 0.0028729 100.902 -18.4361 -85.3089 5.9475 46.0912 -25.4535 -3.64669 0.568969 -1.60087 -5.37983 -0.320022 -0.0162412 -78.816 -20.677 94.6544 7.73251 -44.3101 -15.348 6.51727 45.2871 -8.86326 -2.06244 -0.0779661 0.27054 1.75087 -0.0108187 -0.0179963 -7.41393 -0.00821639 0.00611503 
3.92518 96.9671 -23.2582 -115.606 -89.9905 -115.569 -171.731 2.76208 93.285 -8.52272 8.26954 -0.0371691 63.256 1.99841 1.06025 28.7808 5.05434e-006 7.12239e-006 179.148 2.29855 88.5739 -8.44555 -0.832409 -0.0454353 63.0976 -1.28197 -0.657292 28.7808 1.23702e-005 2.70291e-005 0.0177701 6.32395 -90.0169 14.226 0.0395005 0.0356877 2.55501 0.0410308 0.0338983 -19.9801 0.0269398 0.0459055 0.0325003 0.0269467 0.0459064 100.969 -18.5101 -85.1367 6.00924 46.0738 -25.4897 -3.6886 0.568971 -1.59327 -5.37983 -0.320022 -0.0162412 -78.9331 -20.2333 94.3632 7.71435 -44.334 -15.2968 6.53851 45.3717 -8.83492 -1.85604 -0.0695492 0.282616 1.70841 -0.17303 -0.289563 -7.45619 -0.131225 0.0975444 
3.90313 96.9667 -23.2263 -13.4478 -89.9607 -13.3972 -171.711 2.78143 93.3129 -8.5126 8.25201 -0.0533733 63.2821 2.03163 1.07948 28.7808 5.05434e-006 7.12239e-006 179.162 2.30744 88.6017 -8.4191 -0.827665 -0.0454353 63.0866 -1.30882 -0.672698 28.7808 1.23702e-005 2.70291e-005 0.0145761 6.31027 -90.0164 14.2534 0.0331161 0.0358354 2.58241 0.0346524 0.0344113 -19.9527 0.0207994 0.0441236 0.0599146 0.0208057 0.044125 100.968 -18.5632 -85.1513 5.8994 46.06 -25.4363 -3.60691 0.568977 -1.56919 -5.37983 -0.320022 -0.0162412 -78.8948 -20.1259 94.4332 7.70003 -44.3609 -15.3951 6.64326 45.398 -8.92083 -2.06076 -0.0780043 0.231739 1.73295 -0.168744 -0.306894 -7.42567 -0.125463 0.0922851 
3.89437 96.9749 -23.1967 23.4955 -89.9158 23.5498 -171.724 2.79291 93.3187 -8.46379 8.26978 -0.0441572 63.1548 2.03247 1.07938 28.7808 5.05434e-006 7.12239e-006 179.157 2.04521 88.6079 -7.84416 -0.786525 -0.0454348 62.8273 -1.30196 -0.664768 28.7808 1.23702e-005 2.70291e-005 0.00334052 6.29104 -90.0277 14.2918 0.00747473 0.0300225 2.62088 0.00879787 0.0323428 -19.9143 -0.00189401 0.0308782 0.0983724 -0.00188967 0.0308824 100.956 -18.4523 -85.1783 6.03093 46.0162 -25.4393 -3.63096 0.568979 -1.56311 -5.37983 -0.320022 -0.0162412 -78.813 -20.1176 94.6293 7.62477 -44.3298 -15.5613 6.66615 45.4985 -8.93398 -2.14257 -0.0814895 0.098812 1.83964 -0.146978 -0.198339 -7.60487 -0.118213 0.0776578 
3.87502 96.9667 -23.1758 46.4378 -89.9215 46.4946 -171.701 2.77656 93.3383 -8.50472 8.31887 -0.0451004 63.2783 1.99461 1.05771 28.7808 5.05434e-006 7.12239e-006 179.174 2.2482 88.6227 -8.35922 -0.76555 -0.0454346 63.1118 -1.29499 -0.664892 28.7808 1.23702e-005 2.70291e-005 0.00342877 6.29067 -90.0198 14.2925 0.00872052 0.0283798 2.6216 0.00996549 0.0287327 -19.9136 -0.000214747 0.029682 0.0990986 -0.000207867 0.0296905 100.969 -18.6056 -85.1308 6.00525 46.0699 -25.4312 -3.67144 0.568976 -1.57624 -5.37983 -0.320022 -0.0162412 -78.8303 -20.1625 94.5946 7.61281 -44.3515 -15.6145 6.67232 45.5619 -9.07243 -1.91627 -0.0691516 0.954191 1.75003 -0.114176 -0.209177 -7.34284 -0.0826391 0.0455958 
3.87994 96.9724 -23.132 105.314 -89.8854 105.389 -171.67 2.66436 93.3766 -8.48474 8.3678 -0.0551196 63.3224 1.95641 1.0365 28.7808 5.05434e-006 7.12239e-006 179.181 2.17459 88.6389 -8.46184 -0.722447 -0.0454341 63.1412 -1.31477 -0.676485 28.7808 1.23702e-005 2.70291e-005 -0.00524046 6.28574 -90.031 14.3026 -0.0124444 0.0168485 2.63169 -0.0116911 0.0245853 -19.9035 -0.0169316 0.0123299 0.109178 -0.0169382 0.0123176 100.966 -18.5216 -85.1597 6.05579 46.0003 -25.2812 -3.63906 0.568981 -1.55482 -5.37983 -0.320022 -0.0162412 -78.7873 -20.1634 94.6807 7.49292 -44.3054 -15.6211 6.82256 45.5456 -9.00586 -2.62904 -0.100529 0.0384222 1.76107 -0.0640744 -0.214491 -7.36345 -0.0368729 0.16478 
3.87377 96.9875 -23.1204 73.0819 -89.8479 73.1526 -171.692 2.77432 93.3622 -8.53916 8.43874 -0.0319217 63.1213 2.02544 1.07375 28.7808 5.05434e-006 7.12239e-006 179.174 1.74839 88.6433 -7.42622 -0.677787 -0.0454337 62.6489 -1.39345 -0.71589 28.7808 1.23702e-005 2.70291e-005 -0.00183967 6.28201 -90.0236 14.3113 -0.00288506 0.0259774 2.64039 -0.00174701 0.020905 -19.8948 -0.0105681 0.0239073 0.117882 -0.0105638 0.0239116 101.046 -18.7037 -84.9344 6.09292 45.9519 -25.3546 -3.60431 0.568994 -1.50821 -5.37983 -0.320022 -0.0162412 -78.7728 -20.1636 94.7245 7.45414 -44.1774 -15.6314 6.58144 45.0834 -9.08577 -2.43063 -0.0929603 0.76797 2.1299 -0.109412 -0.297059 -7.70548 -0.0726086 0.231409 
